<svg xmlns="http://www.w3.org/2000/svg" style="display: none;"><symbol id="clock" viewBox="0 0 60 60"><title>clock</title><path d="M30,0C13.458,0,0,13.458,0,30s13.458,30,30,30s30-13.458,30-30S46.542,0,30,0z M30,58C14.561,58,2,45.439,2,30 S14.561,2,30,2s28,12.561,28,28S45.439,58,30,58z" fill="#043A6B"/><path d="M31,26.021V15.879c0-0.553-0.448-1-1-1s-1,0.447-1,1v10.142c-1.399,0.364-2.494,1.459-2.858,2.858H19c-0.552,0-1,0.447-1,1 s0.448,1,1,1h7.142c0.447,1.72,2,3,3.858,3c2.206,0,4-1.794,4-4C34,28.02,32.72,26.468,31,26.021z M30,31.879c-1.103,0-2-0.897-2-2 s0.897-2,2-2s2,0.897,2,2S31.103,31.879,30,31.879z" fill="#043A6B"/><path d="M30,9.879c0.552,0,1-0.447,1-1v-1c0-0.553-0.448-1-1-1s-1,0.447-1,1v1C29,9.432,29.448,9.879,30,9.879z" fill="#043A6B"/><path d="M30,49.879c-0.552,0-1,0.447-1,1v1c0,0.553,0.448,1,1,1s1-0.447,1-1v-1C31,50.326,30.552,49.879,30,49.879z" fill="#043A6B"/><path d="M52,28.879h-1c-0.552,0-1,0.447-1,1s0.448,1,1,1h1c0.552,0,1-0.447,1-1S52.552,28.879,52,28.879z" fill="#043A6B"/><path d="M9,28.879H8c-0.552,0-1,0.447-1,1s0.448,1,1,1h1c0.552,0,1-0.447,1-1S9.552,28.879,9,28.879z" fill="#043A6B"/><path d="M44.849,13.615l-0.707,0.707c-0.391,0.391-0.391,1.023,0,1.414c0.195,0.195,0.451,0.293,0.707,0.293 s0.512-0.098,0.707-0.293l0.707-0.707c0.391-0.391,0.391-1.023,0-1.414S45.24,13.225,44.849,13.615z" fill="#043A6B"/><path d="M14.444,44.021l-0.707,0.707c-0.391,0.391-0.391,1.023,0,1.414c0.195,0.195,0.451,0.293,0.707,0.293 s0.512-0.098,0.707-0.293l0.707-0.707c0.391-0.391,0.391-1.023,0-1.414S14.834,43.631,14.444,44.021z" fill="#043A6B"/><path d="M45.556,44.021c-0.391-0.391-1.023-0.391-1.414,0s-0.391,1.023,0,1.414l0.707,0.707c0.195,0.195,0.451,0.293,0.707,0.293 s0.512-0.098,0.707-0.293c0.391-0.391,0.391-1.023,0-1.414L45.556,44.021z" fill="#043A6B"/><path d="M15.151,13.615c-0.391-0.391-1.023-0.391-1.414,0s-0.391,1.023,0,1.414l0.707,0.707c0.195,0.195,0.451,0.293,0.707,0.293 s0.512-0.098,0.707-0.293c0.391-0.391,0.391-1.023,0-1.414L15.151,13.615z" fill="#043A6B"/></symbol><symbol id="arrows" viewBox="0 0 482.462 482.462"><title>arrows</title><polygon points="482.462,21.397 0,21.397 0,41.089 462.769,41.089 462.769,366.517 128.62,366.517 189.553,305.584 175.63,291.661 90.928,376.363 175.63,461.065 189.553,447.142 128.62,386.209 482.462,386.209 " fill="#043A6B"/></symbol><symbol id="home" viewBox="0 0 33 33"><title>home</title><path d="M27.649,33h-7.216c-0.276,0-0.5-0.224-0.5-0.5V22.32h-6.867V32.5c0,0.276-0.224,0.5-0.5,0.5H5.348 c-0.276,0-0.5-0.224-0.5-0.5V15.893H0.73c-0.205,0-0.389-0.125-0.465-0.315c-0.075-0.19-0.027-0.407,0.121-0.548L16.154,0.137 c0.193-0.183,0.494-0.182,0.688,0l15.772,14.893c0.148,0.141,0.196,0.358,0.121,0.548c-0.076,0.19-0.26,0.315-0.465,0.315h-4.121 V32.5C28.149,32.776,27.925,33,27.649,33z M20.933,32h6.216V15.393c0-0.276,0.224-0.5,0.5-0.5h3.363L16.498,1.188L1.988,14.893h3.36 c0.276,0,0.5,0.224,0.5,0.5V32h6.218V21.82c0-0.276,0.224-0.5,0.5-0.5h7.867c0.276,0,0.5,0.224,0.5,0.5V32z" fill="#043A6B"/></symbol><symbol id="settings" viewBox="0 0 54 54"><title>settings</title><path d="M51.22,21h-5.052c-0.812,0-1.481-0.447-1.792-1.197s-0.153-1.54,0.42-2.114l3.572-3.571 c0.525-0.525,0.814-1.224,0.814-1.966c0-0.743-0.289-1.441-0.814-1.967l-4.553-4.553c-1.05-1.05-2.881-1.052-3.933,0l-3.571,3.571 c-0.574,0.573-1.366,0.733-2.114,0.421C33.447,9.313,33,8.644,33,7.832V2.78C33,1.247,31.753,0,30.22,0H23.78 C22.247,0,21,1.247,21,2.78v5.052c0,0.812-0.447,1.481-1.197,1.792c-0.748,0.313-1.54,0.152-2.114-0.421l-3.571-3.571 c-1.052-1.052-2.883-1.05-3.933,0l-4.553,4.553c-0.525,0.525-0.814,1.224-0.814,1.967c0,0.742,0.289,1.44,0.814,1.966l3.572,3.571 c0.573,0.574,0.73,1.364,0.42,2.114S8.644,21,7.832,21H2.78C1.247,21,0,22.247,0,23.78v6.439C0,31.753,1.247,33,2.78,33h5.052 c0.812,0,1.481,0.447,1.792,1.197s0.153,1.54-0.42,2.114l-3.572,3.571c-0.525,0.525-0.814,1.224-0.814,1.966 c0,0.743,0.289,1.441,0.814,1.967l4.553,4.553c1.051,1.051,2.881,1.053,3.933,0l3.571-3.572c0.574-0.573,1.363-0.731,2.114-0.42 c0.75,0.311,1.197,0.98,1.197,1.792v5.052c0,1.533,1.247,2.78,2.78,2.78h6.439c1.533,0,2.78-1.247,2.78-2.78v-5.052 c0-0.812,0.447-1.481,1.197-1.792c0.751-0.312,1.54-0.153,2.114,0.42l3.571,3.572c1.052,1.052,2.883,1.05,3.933,0l4.553-4.553 c0.525-0.525,0.814-1.224,0.814-1.967c0-0.742-0.289-1.44-0.814-1.966l-3.572-3.571c-0.573-0.574-0.73-1.364-0.42-2.114 S45.356,33,46.168,33h5.052c1.533,0,2.78-1.247,2.78-2.78V23.78C54,22.247,52.753,21,51.22,21z M52,30.22 C52,30.65,51.65,31,51.22,31h-5.052c-1.624,0-3.019,0.932-3.64,2.432c-0.622,1.5-0.295,3.146,0.854,4.294l3.572,3.571 c0.305,0.305,0.305,0.8,0,1.104l-4.553,4.553c-0.304,0.304-0.799,0.306-1.104,0l-3.571-3.572c-1.149-1.149-2.794-1.474-4.294-0.854 c-1.5,0.621-2.432,2.016-2.432,3.64v5.052C31,51.65,30.65,52,30.22,52H23.78C23.35,52,23,51.65,23,51.22v-5.052 c0-1.624-0.932-3.019-2.432-3.64c-0.503-0.209-1.021-0.311-1.533-0.311c-1.014,0-1.997,0.4-2.761,1.164l-3.571,3.572 c-0.306,0.306-0.801,0.304-1.104,0l-4.553-4.553c-0.305-0.305-0.305-0.8,0-1.104l3.572-3.571c1.148-1.148,1.476-2.794,0.854-4.294 C10.851,31.932,9.456,31,7.832,31H2.78C2.35,31,2,30.65,2,30.22V23.78C2,23.35,2.35,23,2.78,23h5.052 c1.624,0,3.019-0.932,3.64-2.432c0.622-1.5,0.295-3.146-0.854-4.294l-3.572-3.571c-0.305-0.305-0.305-0.8,0-1.104l4.553-4.553 c0.304-0.305,0.799-0.305,1.104,0l3.571,3.571c1.147,1.147,2.792,1.476,4.294,0.854C22.068,10.851,23,9.456,23,7.832V2.78 C23,2.35,23.35,2,23.78,2h6.439C30.65,2,31,2.35,31,2.78v5.052c0,1.624,0.932,3.019,2.432,3.64 c1.502,0.622,3.146,0.294,4.294-0.854l3.571-3.571c0.306-0.305,0.801-0.305,1.104,0l4.553,4.553c0.305,0.305,0.305,0.8,0,1.104 l-3.572,3.571c-1.148,1.148-1.476,2.794-0.854,4.294c0.621,1.5,2.016,2.432,3.64,2.432h5.052C51.65,23,52,23.35,52,23.78V30.22z" fill="#043A6B"/><path d="M27,18c-4.963,0-9,4.037-9,9s4.037,9,9,9s9-4.037,9-9S31.963,18,27,18z M27,34c-3.859,0-7-3.141-7-7s3.141-7,7-7 s7,3.141,7,7S30.859,34,27,34z" fill="#043A6B"/></symbol><symbol id="flash" viewBox="0 0 512 512"><title>flash</title><path d="M400.388,175.787c-1.707-3.413-4.267-5.12-7.68-5.12H292.015L391.855,12.8c1.707-2.56,1.707-5.973,0-8.533 S387.588,0,384.175,0H247.642c-3.413,0-5.973,1.707-7.68,4.267l-128,256c-1.707,2.56-1.707,5.973,0,8.533 c1.707,2.56,5.12,4.267,7.68,4.267h87.893l-95.573,227.84c-1.707,3.413,0,7.68,3.413,10.24c0.853,0.853,2.56,0.853,4.267,0.853 c2.56,0,5.12-0.853,6.827-2.56l273.067-324.267C401.242,182.613,402.095,179.2,400.388,175.787z M149.508,454.827l78.507-187.733 c0.853-2.56,0.853-5.12-0.853-7.68c-1.707-1.707-4.267-3.413-6.827-3.413h-87.04L252.762,17.067h116.053L268.122,174.933 c-1.707,2.56-1.707,5.973,0,8.533s4.267,4.267,7.68,4.267h98.987L149.508,454.827z" fill="#043A6B"/></symbol><symbol id="invoice" viewBox="0 0 512.002 512.002"><title>invoice</title><path d="M128.257,392.533h-0.085c-4.71,0-8.491,3.823-8.491,8.533s3.866,8.533,8.576,8.533s8.533-3.823,8.533-8.533 S132.967,392.533,128.257,392.533z" fill="#043A6B"/><path d="M179.457,392.533h-0.085c-4.71,0-8.491,3.823-8.491,8.533s3.866,8.533,8.576,8.533s8.533-3.823,8.533-8.533 S184.167,392.533,179.457,392.533z" fill="#043A6B"/><path d="M247.468,273.067h-68.267c-4.719,0-8.533,3.823-8.533,8.533s3.814,8.533,8.533,8.533h68.267 c4.719,0,8.533-3.823,8.533-8.533S252.187,273.067,247.468,273.067z" fill="#043A6B"/><path d="M213.334,324.267h-34.133c-4.719,0-8.533,3.823-8.533,8.533c0,4.71,3.814,8.533,8.533,8.533h34.133 c4.719,0,8.533-3.823,8.533-8.533C221.868,328.09,218.053,324.267,213.334,324.267z" fill="#043A6B"/><path d="M358.401,298.667c-9.412,0-17.067-7.654-17.067-17.067c0-4.71-3.814-8.533-8.533-8.533s-8.533,3.823-8.533,8.533 c0,15.855,10.914,29.107,25.6,32.922v1.212c0,4.71,3.814,8.533,8.533,8.533c4.719,0,8.533-3.823,8.533-8.533v-1.212 c14.686-3.814,25.6-17.067,25.6-32.922c0-18.825-15.309-34.133-34.133-34.133c-9.412,0-17.067-7.654-17.067-17.067 c0-9.412,7.654-17.067,17.067-17.067c9.412,0,17.067,7.654,17.067,17.067c0,4.71,3.814,8.533,8.533,8.533 s8.533-3.823,8.533-8.533c0-15.855-10.914-29.107-25.6-32.922v-1.212c0-4.71-3.814-8.533-8.533-8.533 c-4.719,0-8.533,3.823-8.533,8.533v1.212c-14.686,3.814-25.6,17.067-25.6,32.922c0,18.825,15.309,34.133,34.133,34.133 c9.412,0,17.067,7.654,17.067,17.067C375.468,291.012,367.813,298.667,358.401,298.667z" fill="#043A6B"/><path d="M333.057,392.533h-0.085c-4.71,0-8.491,3.823-8.491,8.533s3.866,8.533,8.576,8.533c4.71,0,8.533-3.823,8.533-8.533 S337.768,392.533,333.057,392.533z" fill="#043A6B"/><path d="M435.457,409.6c4.71,0,8.533-3.823,8.533-8.533s-3.823-8.533-8.533-8.533h-0.085c-4.71,0-8.491,3.823-8.491,8.533 S430.747,409.6,435.457,409.6z" fill="#043A6B"/><path d="M384.257,392.533h-0.085c-4.71,0-8.491,3.823-8.491,8.533s3.866,8.533,8.576,8.533c4.71,0,8.533-3.823,8.533-8.533 S388.968,392.533,384.257,392.533z" fill="#043A6B"/><path d="M349.868,102.4h34.133c4.719,0,8.533-3.823,8.533-8.533c0-4.71-3.814-8.533-8.533-8.533h-34.133 c-4.719,0-8.533,3.823-8.533,8.533C341.334,98.577,345.149,102.4,349.868,102.4z" fill="#043A6B"/><path d="M230.657,392.533h-0.085c-4.71,0-8.491,3.823-8.491,8.533s3.866,8.533,8.576,8.533s8.533-3.823,8.533-8.533 S235.367,392.533,230.657,392.533z" fill="#043A6B"/><path d="M128.001,290.133h17.067c4.719,0,8.533-3.823,8.533-8.533s-3.814-8.533-8.533-8.533h-17.067 c-4.719,0-8.533,3.823-8.533,8.533S123.282,290.133,128.001,290.133z" fill="#043A6B"/><path d="M128.001,341.333h17.067c4.719,0,8.533-3.823,8.533-8.533c0-4.71-3.814-8.533-8.533-8.533h-17.067 c-4.719,0-8.533,3.823-8.533,8.533C119.468,337.51,123.282,341.333,128.001,341.333z" fill="#043A6B"/><path d="M469.334,0H42.668c-4.719,0-8.533,3.823-8.533,8.533v494.933c0,3.447,2.074,6.562,5.265,7.885 c1.058,0.435,2.167,0.648,3.268,0.648c2.219,0,4.403-0.87,6.033-2.5l45.167-45.167l45.167,45.167 c3.337,3.337,8.73,3.337,12.066,0l28.1-28.1l28.1,28.1c3.337,3.337,8.73,3.337,12.066,0l28.1-28.1l11.034,11.034 c3.337,3.336,8.73,3.336,12.066,0l28.1-28.1l28.1,28.1c3.337,3.336,8.73,3.336,12.066,0l19.567-19.567l19.567,19.567 c3.337,3.336,8.73,3.336,12.066,0l45.167-45.167l28.1,28.1c0.171,0.179,0.35,0.341,0.538,0.495c0,0.009,0.008,0.009,0.008,0.009 v0.009c1.399,1.169,3.174,1.894,5.112,1.98c0.316,0.009,0.631,0.009,0.964-0.009h0.009c1.724-0.128,3.311-0.751,4.599-1.749 c0.461-0.35,0.879-0.751,1.254-1.186c1.289-1.493,2.074-3.43,2.082-5.564v-0.017V8.533C477.868,3.823,474.053,0,469.334,0z M460.801,448.734l-19.567-19.567c-3.337-3.336-8.73-3.336-12.066,0l-45.167,45.167l-19.567-19.567 c-3.336-3.337-8.73-3.337-12.066,0l-19.567,19.567l-28.1-28.1c-3.336-3.337-8.73-3.337-12.066,0l-28.1,28.1L253.501,463.3 c-3.337-3.337-8.73-3.337-12.066,0l-28.1,28.1l-28.1-28.1c-1.664-1.664-3.849-2.5-6.033-2.5c-2.185,0-4.369,0.836-6.033,2.5 l-28.1,28.1l-45.167-45.167c-3.337-3.337-8.73-3.337-12.066,0l-36.634,36.634V17.067h409.6V448.734z" fill="#043A6B"/><path d="M77.057,409.6c4.71,0,8.533-3.823,8.533-8.533s-3.823-8.533-8.533-8.533h-0.085c-4.71,0-8.491,3.823-8.491,8.533 S72.347,409.6,77.057,409.6z" fill="#043A6B"/><path d="M128.001,238.933h17.067c4.719,0,8.533-3.823,8.533-8.533s-3.814-8.533-8.533-8.533h-17.067 c-4.719,0-8.533,3.823-8.533,8.533S123.282,238.933,128.001,238.933z" fill="#043A6B"/><path d="M281.857,409.6c4.71,0,8.533-3.823,8.533-8.533s-3.823-8.533-8.533-8.533h-0.085c-4.71,0-8.491,3.823-8.491,8.533 S277.147,409.6,281.857,409.6z" fill="#043A6B"/><path d="M179.201,187.733h51.2c4.719,0,8.533-3.823,8.533-8.533s-3.814-8.533-8.533-8.533h-51.2 c-4.719,0-8.533,3.823-8.533,8.533S174.482,187.733,179.201,187.733z" fill="#043A6B"/><path d="M128.001,187.733h17.067c4.719,0,8.533-3.823,8.533-8.533s-3.814-8.533-8.533-8.533h-17.067 c-4.719,0-8.533,3.823-8.533,8.533S123.282,187.733,128.001,187.733z" fill="#043A6B"/><path d="M264.534,221.867h-85.333c-4.719,0-8.533,3.823-8.533,8.533s3.814,8.533,8.533,8.533h85.333 c4.719,0,8.533-3.823,8.533-8.533S269.253,221.867,264.534,221.867z" fill="#043A6B"/><path d="M128.001,102.4h136.533c4.719,0,8.533-3.823,8.533-8.533c0-4.71-3.814-8.533-8.533-8.533H128.001 c-4.719,0-8.533,3.823-8.533,8.533C119.468,98.577,123.282,102.4,128.001,102.4z" fill="#043A6B"/></symbol><symbol id="business-1" viewBox="0 0 490 490"><title>business-1</title><path d="M425,0H65c-5.523,0-10,4.477-10,10v470c0,5.523,4.477,10,10,10h279.987c0.003,0,0.007,0,0.01,0 c2.603,0,5.161-1.017,7.074-2.929l80-80c1.912-1.913,2.904-4.47,2.905-7.071H435V10C435,4.477,430.523,0,425,0z M355,455.858V410 h45.858L355,455.858z M415,390h-70c-5.523,0-10,4.477-10,10v70H75V20h340V390z" fill="#043A6B"/><rect x="110" y="50" width="80" height="20" fill="#043A6B"/><rect x="110" y="80" width="130" height="20" fill="#043A6B"/><path d="M120,430h180v-20h-95v-90h155v40.005h20V135c0-5.523-4.477-10-10-10H120c-5.523,0-10,4.477-10,10v285 C110,425.523,114.477,430,120,430z M205,145h155v35H205V145z M205,200h155v40H205V200z M205,260h155v40H205V260z M130,145h55v35 h-55V145z M130,200h55v210h-55V200z" fill="#043A6B"/><rect x="145" y="215" width="25" height="20" fill="#043A6B"/><rect x="145" y="275" width="25" height="20" fill="#043A6B"/><rect x="145" y="335" width="25" height="20" fill="#043A6B"/><rect x="145" y="375" width="25" height="20" fill="#043A6B"/></symbol><symbol id="hourglass" viewBox="0 0 60 60"><title>hourglass</title><circle cx="30" cy="26" r="1" fill="#043A6B"/><circle cx="33" cy="24" r="1" fill="#043A6B"/><circle cx="27" cy="24" r="1" fill="#043A6B"/><circle cx="24" cy="22" r="1" fill="#043A6B"/><circle cx="36" cy="22" r="1" fill="#043A6B"/><circle cx="39" cy="20" r="1" fill="#043A6B"/><circle cx="21" cy="20" r="1" fill="#043A6B"/><circle cx="30" cy="22" r="1" fill="#043A6B"/><circle cx="30" cy="34" r="1" fill="#043A6B"/><circle cx="30" cy="37" r="1" fill="#043A6B"/><circle cx="30" cy="40" r="1" fill="#043A6B"/><circle cx="30" cy="43" r="1" fill="#043A6B"/><circle cx="30" cy="46" r="1" fill="#043A6B"/><circle cx="30" cy="49" r="1" fill="#043A6B"/><path d="M54,58h-3v-4h-5V43.778c0-2.7-1.342-5.208-3.589-6.706L31.803,30l10.608-7.072C44.658,21.43,46,18.922,46,16.222V6h5V2h3 c0.552,0,1-0.447,1-1s-0.448-1-1-1h-3h-1H10H9H6C5.448,0,5,0.447,5,1s0.448,1,1,1h3v4h5v10.222c0,2.7,1.342,5.208,3.589,6.706 L28.197,30l-10.608,7.072C15.342,38.57,14,41.078,14,43.778V54H9v4H6c-0.552,0-1,0.447-1,1s0.448,1,1,1h3h1h40h1h3 c0.552,0,1-0.447,1-1S54.552,58,54,58z M11,4V2h38v2h-3H14H11z M18.698,21.264C17.009,20.137,16,18.252,16,16.222V6h28v10.222 c0,2.03-1.009,3.915-2.698,5.042L30,28.798L18.698,21.264z M16,43.778c0-2.03,1.009-3.915,2.698-5.042L30,31.202l11.302,7.534 C42.991,39.863,44,41.748,44,43.778V54H16V43.778z M11,56h3h32h3v2H11V56z" fill="#043A6B"/></symbol><symbol id="search" viewBox="0 0 52.966 52.966"><title>search</title><path d="M51.704,51.273L36.845,35.82c3.79-3.801,6.138-9.041,6.138-14.82c0-11.58-9.42-21-21-21s-21,9.42-21,21s9.42,21,21,21 c5.083,0,9.748-1.817,13.384-4.832l14.895,15.491c0.196,0.205,0.458,0.307,0.721,0.307c0.25,0,0.499-0.093,0.693-0.279 C52.074,52.304,52.086,51.671,51.704,51.273z M21.983,40c-10.477,0-19-8.523-19-19s8.523-19,19-19s19,8.523,19,19 S32.459,40,21.983,40z" fill="#043A6B"/></symbol><symbol id="business" viewBox="0 0 500.204 500.204"><title>business</title><path d="M396.319,0H103.884C87.254,0,73.723,13.53,73.723,30.161v439.882c0,16.631,13.53,30.161,30.161,30.161H342.86 c2.785,0,5.455-1.107,7.425-3.075l73.12-73.121c1.969-1.969,3.075-4.64,3.075-7.424V30.161C426.48,13.53,412.95,0,396.319,0z M353.361,464.353v-28.109c0-5.051,4.109-9.161,9.161-9.161h28.109L353.361,464.353z M103.884,21h292.435 c5.052,0,9.161,4.109,9.161,9.161v32.452H94.723V30.161C94.723,25.109,98.833,21,103.884,21z M94.723,470.043V83.613H405.48v322.47 h-42.958c-16.631,0-30.161,13.53-30.161,30.161v42.96H103.884C98.833,479.204,94.723,475.094,94.723,470.043z" fill="#043A6B"/><path d="M137.952,161.361h137.5c5.799,0,10.5-4.701,10.5-10.5s-4.701-10.5-10.5-10.5h-137.5c-5.799,0-10.5,4.701-10.5,10.5 S132.153,161.361,137.952,161.361z" fill="#043A6B"/><path d="M317.452,161.361h35.5c5.799,0,10.5-4.701,10.5-10.5s-4.701-10.5-10.5-10.5h-35.5c-5.799,0-10.5,4.701-10.5,10.5 S311.653,161.361,317.452,161.361z" fill="#043A6B"/><path d="M137.952,244.736h137.5c5.799,0,10.5-4.701,10.5-10.5s-4.701-10.5-10.5-10.5h-137.5c-5.799,0-10.5,4.701-10.5,10.5 S132.153,244.736,137.952,244.736z" fill="#043A6B"/><path d="M317.452,244.736h35.5c5.799,0,10.5-4.701,10.5-10.5s-4.701-10.5-10.5-10.5h-35.5c-5.799,0-10.5,4.701-10.5,10.5 S311.653,244.736,317.452,244.736z" fill="#043A6B"/><path d="M285.952,317.611c0-5.799-4.701-10.5-10.5-10.5h-137.5c-5.799,0-10.5,4.701-10.5,10.5s4.701,10.5,10.5,10.5h137.5 C281.251,328.111,285.952,323.41,285.952,317.611z" fill="#043A6B"/><path d="M317.452,328.111h35.5c5.799,0,10.5-4.701,10.5-10.5s-4.701-10.5-10.5-10.5h-35.5c-5.799,0-10.5,4.701-10.5,10.5 S311.653,328.111,317.452,328.111z" fill="#043A6B"/><path d="M352.952,388.111c5.799,0,10.5-4.701,10.5-10.5s-4.701-10.5-10.5-10.5h-100c-5.799,0-10.5,4.701-10.5,10.5 s4.701,10.5,10.5,10.5H352.952z" fill="#043A6B"/></symbol><symbol id="add-circular-button" viewBox="0 0 44.238 44.238"><title>add-circular-button</title><path d="M22.119,44.237C9.922,44.237,0,34.315,0,22.12C0,9.924,9.922,0.001,22.119,0.001S44.238,9.923,44.238,22.12 S34.314,44.237,22.119,44.237z M22.119,1.501C10.75,1.501,1.5,10.751,1.5,22.12s9.25,20.619,20.619,20.619 s20.619-9.25,20.619-20.619S33.488,1.501,22.119,1.501z" fill="#043A6B"/><g> <path d="M31.434,22.869H12.805c-0.414,0-0.75-0.336-0.75-0.75s0.336-0.75,0.75-0.75h18.628c0.414,0,0.75,0.336,0.75,0.75 S31.848,22.869,31.434,22.869z" fill="#043A6B"/> </g><g> <path d="M22.119,32.183c-0.414,0-0.75-0.336-0.75-0.75V12.806c0-0.414,0.336-0.75,0.75-0.75s0.75,0.336,0.75,0.75v18.626 C22.869,31.847,22.533,32.183,22.119,32.183z" fill="#043A6B"/> </g></symbol></svg>